<svg width="20" height="20" viewBox="0 0 20 20" fill="none" xmlns="http://www.w3.org/2000/svg">
<path d="M19.2235 0.776516C19.0958 0.648467 18.944 0.546874 18.777 0.477556C18.6099 0.408238 18.4308 0.372559 18.25 0.372559C18.0691 0.372559 17.89 0.408238 17.723 0.477556C17.5559 0.546874 17.4042 0.648467 17.2765 0.776516L9.99999 8.05577L2.72349 0.776516C2.59565 0.648674 2.44388 0.547264 2.27684 0.478076C2.10981 0.408889 1.93078 0.373278 1.74999 0.373278C1.56919 0.373278 1.39017 0.408889 1.22313 0.478076C1.0561 0.547264 0.904331 0.648674 0.776489 0.776516C0.648647 0.904357 0.547237 1.05613 0.47805 1.22316C0.408861 1.39019 0.373253 1.56922 0.373253 1.75002C0.373253 1.93081 0.408861 2.10984 0.47805 2.27687C0.547237 2.4439 0.648647 2.59567 0.776489 2.72352L8.05574 10L0.776489 17.2765C0.648647 17.4044 0.547237 17.5561 0.47805 17.7232C0.408861 17.8902 0.373253 18.0692 0.373253 18.25C0.373253 18.4308 0.408861 18.6098 0.47805 18.7769C0.547237 18.9439 0.648647 19.0957 0.776489 19.2235C0.904331 19.3514 1.0561 19.4528 1.22313 19.522C1.39017 19.5911 1.56919 19.6268 1.74999 19.6268C1.93078 19.6268 2.10981 19.5911 2.27684 19.522C2.44388 19.4528 2.59565 19.3514 2.72349 19.2235L9.99999 11.9443L17.2765 19.2235C17.4043 19.3514 17.5561 19.4528 17.7231 19.522C17.8902 19.5911 18.0692 19.6268 18.25 19.6268C18.4308 19.6268 18.6098 19.5911 18.7768 19.522C18.9439 19.4528 19.0956 19.3514 19.2235 19.2235C19.3513 19.0957 19.4527 18.9439 19.5219 18.7769C19.5911 18.6098 19.6267 18.4308 19.6267 18.25C19.6267 18.0692 19.5911 17.8902 19.5219 17.7232C19.4527 17.5561 19.3513 17.4044 19.2235 17.2765L11.9442 10L19.2235 2.72352C19.3515 2.59579 19.4531 2.44406 19.5224 2.27701C19.5918 2.10996 19.6274 1.93088 19.6274 1.75002C19.6274 1.56916 19.5918 1.39007 19.5224 1.22302C19.4531 1.05597 19.3515 0.904241 19.2235 0.776516Z" fill="white"/>
</svg>
