<svg width="775" height="788" viewBox="0 0 775 788" fill="none" xmlns="http://www.w3.org/2000/svg">
<path d="M1202.56 735.636C1183.11 677.219 1155.39 620.471 1125.24 569.565C1027.5 404.329 906.409 227.826 726.966 118.503C585.941 32.5467 390.451 1.66922 230.461 71.3523C48.587 150.215 -50.6168 370.948 26.2175 533.263C108.887 676.802 377.807 687.234 418.656 849.549C434.218 911.304 414.766 981.405 434.704 1044.41C450.752 1094.48 486.737 1142.05 529.531 1177.94C618.523 1251.79 746.904 1278.91 867.991 1260.97C987.133 1243.03 1098.49 1184.61 1165.12 1097.4C1247.79 989.333 1242.92 857.895 1202.56 735.636Z" fill="url(#paint0_linear_265_58)"/>
<path opacity="0.56" d="M1482.18 685.982C1475.86 655.939 1480.23 624.644 1507.95 588.342C1538.1 548.702 1579.92 516.156 1604.24 473.595C1644.6 403.077 1619.31 314.2 1562.9 255.366C1437.93 126.014 1189.43 138.114 1019.71 178.172C847.08 219.064 681.74 300.847 548.01 402.66C452.21 475.264 360.787 553.292 278.117 636.745C228.028 687.234 69.4972 831.19 145.359 904.628C168.215 926.743 206.632 933.42 239.7 936.34C289.788 941.348 329.178 945.937 374.403 968.052C450.751 1005.61 512.024 1054.43 603.447 1061.52C699.247 1068.61 794.074 1043.16 889.874 1042.33C965.25 1041.49 1039.17 1056.51 1110.17 1076.96C1176.79 1096.15 1233.68 1125.78 1305.17 1117.85C1387.35 1108.67 1463.7 1062.35 1509.41 1003.94C1548.32 953.865 1565.34 888.355 1546.37 829.521C1527.4 775.694 1491.91 732.298 1482.18 685.982Z" fill="#FFF95F"/>
<path d="M480.416 225.74C592.263 196.114 708.487 246.186 820.821 225.74C966.709 199.035 937.045 23.3668 1076.61 0C1378.6 7.09349 1436.95 371.365 1404.37 565.81C1396.11 613.795 1379.09 652.601 1332.4 683.478C1187.97 777.78 996.859 721.449 835.896 769.435C763.925 791.132 722.103 836.197 705.569 898.786C687.09 968.47 686.604 1051.51 614.147 1098.66C498.409 1173.76 371.972 1069.03 347.171 969.304C296.597 854.974 385.588 760.255 442.485 664.284C536.339 517.407 214.413 296.257 480.416 225.74Z" fill="url(#paint1_linear_265_58)"/>
<path d="M914.19 60.9207C911.273 49.2374 896.198 39.6403 882.581 40.0575C855.835 40.8921 839.788 62.1725 818.391 73.4387C796.021 85.1221 775.11 95.9709 748.851 100.561C726.481 104.733 703.625 104.733 681.256 99.7262C651.592 93.05 626.305 78.0285 595.182 76.7767C566.491 75.9422 541.204 103.064 550.929 126.848C578.648 195.697 699.249 209.467 771.22 192.776C806.233 184.431 844.651 168.158 869.938 145.625C893.766 125.179 921.485 91.381 914.19 60.9207Z" fill="url(#paint2_linear_265_58)"/>
<path d="M936.072 799.895C877.231 779.866 803.315 820.341 772.192 860.816C736.206 907.132 716.754 988.498 763.438 1033.98C789.698 1059.85 831.519 1041.91 844.163 1015.62C852.43 998.513 848.054 980.153 849.999 962.211C851.944 945.103 856.807 926.743 867.019 911.722C875.286 899.204 885.984 886.686 898.141 876.672C911.757 866.24 929.264 860.816 944.339 852.053C969.626 837.866 962.819 809.075 936.072 799.895Z" fill="url(#paint3_linear_265_58)"/>
<path d="M407.957 508.227C407.957 506.558 407.471 505.306 407.471 503.637C404.067 487.364 386.074 475.264 367.595 474.846C343.28 474.012 324.315 491.954 323.342 512.4C322.37 534.515 344.739 552.875 370.026 552.875C377.321 552.875 386.074 551.206 392.882 547.868C404.553 542.026 410.389 531.594 410.875 520.328C410.389 515.738 409.902 511.983 407.957 508.227Z" fill="url(#paint4_linear_265_58)"/>
<path d="M350.575 604.615C341.335 601.277 331.609 600.025 322.856 600.443C308.754 597.939 293.192 600.025 279.576 606.702C263.042 614.63 251.371 627.982 246.022 642.586C240.672 655.104 239.7 668.874 244.563 681.809C255.748 714.356 296.596 734.801 335.014 726.039C361.273 719.78 382.67 699.334 388.992 676.802C396.286 648.845 383.156 616.716 350.575 604.615Z" fill="url(#paint5_linear_265_58)"/>
<path d="M284.439 509.896C279.089 503.22 272.281 497.795 263.042 495.709C255.261 494.04 250.398 494.457 243.104 495.709C235.323 496.961 226.57 501.551 221.221 506.558C215.385 511.982 213.44 515.738 210.036 522.414C208.577 526.169 208.091 529.925 208.091 533.68C208.091 537.853 209.063 542.025 211.008 545.781C212.467 549.536 214.899 552.874 218.789 555.795C222.193 558.716 226.084 561.219 230.46 562.471C234.837 564.558 239.7 565.392 244.563 564.975C253.802 564.557 263.528 562.054 270.336 556.212C271.309 555.795 272.281 554.96 273.254 554.543C274.713 553.291 276.658 552.457 277.63 551.205C279.576 549.536 282.007 546.615 283.466 544.529C284.439 542.86 285.411 541.191 285.898 539.939C286.87 538.27 287.356 537.018 287.842 534.932C290.274 526.586 290.274 517.407 284.439 509.896Z" fill="url(#paint6_linear_265_58)"/>
<defs>
<linearGradient id="paint0_linear_265_58" x1="0.590841" y1="649.921" x2="1230.9" y2="649.921" gradientUnits="userSpaceOnUse">
<stop stop-color="#FF8A00" stop-opacity="0.8"/>
<stop offset="0.9959" stop-color="#FFDD95"/>
</linearGradient>
<linearGradient id="paint1_linear_265_58" x1="1039.06" y1="934.386" x2="720.605" y2="128.502" gradientUnits="userSpaceOnUse">
<stop stop-color="#FF8A00" stop-opacity="0.8"/>
<stop offset="1" stop-color="#FFF95F"/>
</linearGradient>
<linearGradient id="paint2_linear_265_58" x1="548.965" y1="119.831" x2="915.516" y2="119.831" gradientUnits="userSpaceOnUse">
<stop stop-color="#FF8A00"/>
<stop offset="1" stop-color="#F0D85C"/>
</linearGradient>
<linearGradient id="paint3_linear_265_58" x1="735.891" y1="920.542" x2="960.05" y2="920.542" gradientUnits="userSpaceOnUse">
<stop stop-color="#FF8A00"/>
<stop offset="1" stop-color="#F0D85C"/>
</linearGradient>
<linearGradient id="paint4_linear_265_58" x1="323.049" y1="513.445" x2="410.328" y2="513.445" gradientUnits="userSpaceOnUse">
<stop stop-color="#FF8A00"/>
<stop offset="1" stop-color="#F0D85C"/>
</linearGradient>
<linearGradient id="paint5_linear_265_58" x1="241.326" y1="663.999" x2="390.645" y2="663.999" gradientUnits="userSpaceOnUse">
<stop stop-color="#FF8A00"/>
<stop offset="1" stop-color="#F0D85C"/>
</linearGradient>
<linearGradient id="paint6_linear_265_58" x1="208.205" y1="529.846" x2="289.611" y2="529.846" gradientUnits="userSpaceOnUse">
<stop stop-color="#FF8A00"/>
<stop offset="1" stop-color="#F0D85C"/>
</linearGradient>
</defs>
</svg>
