<svg width="1080" height="788" viewBox="0 0 1080 788" fill="none" xmlns="http://www.w3.org/2000/svg">
<path d="M658.562 242.636C639.11 184.219 611.391 127.471 581.241 76.5652C483.496 -88.6713 362.409 -265.174 182.966 -374.497C41.9412 -460.453 -153.549 -491.331 -313.539 -421.648C-495.413 -342.785 -594.617 -122.052 -517.782 40.2634C-435.113 183.802 -166.193 194.234 -125.344 356.549C-109.782 418.304 -129.234 488.405 -109.296 551.412C-93.2482 601.483 -57.2625 649.051 -14.4687 684.936C74.523 758.792 202.904 785.914 323.991 767.971C443.133 750.029 554.495 691.612 621.117 604.404C703.787 496.333 698.924 364.895 658.562 242.636Z" fill="url(#paint0_linear_265_36)"/>
<path opacity="0.56" d="M938.18 192.982C931.858 162.939 936.234 131.644 963.953 95.3421C994.103 55.702 1035.92 23.1554 1060.24 -19.4055C1100.6 -89.9231 1075.31 -178.8 1018.9 -237.634C893.927 -366.986 645.431 -354.886 475.714 -314.828C303.08 -273.936 137.74 -192.153 4.00958 -90.3404C-91.7902 -17.7365 -183.213 60.2921 -265.883 143.745C-315.972 194.234 -474.503 338.19 -398.641 411.628C-375.785 433.743 -337.368 440.419 -304.3 443.34C-254.212 448.347 -214.822 452.937 -169.597 475.052C-93.2489 512.606 -31.976 561.426 59.4471 568.519C155.247 575.613 250.074 550.16 345.874 549.325C421.25 548.491 495.166 563.512 566.165 583.958C632.787 603.152 689.684 632.778 761.169 624.85C843.352 615.67 919.7 569.354 965.412 510.937C1004.32 460.865 1021.34 395.355 1002.37 336.521C983.405 282.694 947.906 239.298 938.18 192.982Z" fill="#FFF95F"/>
<path d="M-63.5841 -267.26C48.2633 -296.886 164.487 -246.814 276.821 -267.26C422.709 -293.965 393.045 -469.633 532.611 -493C834.6 -485.907 892.955 -121.635 860.373 72.8099C852.106 120.795 835.086 159.601 788.402 190.478C643.973 284.78 452.859 228.449 291.896 276.435C219.925 298.132 178.103 343.197 161.569 405.786C143.09 475.47 142.604 558.505 70.1465 605.656C-45.5913 680.763 -172.028 576.03 -196.829 476.304C-247.403 361.974 -158.412 267.255 -101.515 171.284C-7.66064 24.4072 -329.587 -196.743 -63.5841 -267.26Z" fill="url(#paint1_linear_265_36)"/>
<path d="M392.072 306.895C333.231 286.866 259.314 327.341 228.192 367.816C192.206 414.132 172.754 495.498 219.438 540.98C245.698 566.851 287.519 548.908 300.163 522.62C308.43 505.513 304.053 487.153 305.999 469.211C307.944 452.103 312.807 433.743 323.019 418.722C331.286 406.204 341.984 393.686 354.141 383.672C367.757 373.24 385.264 367.816 400.339 359.053C425.626 344.866 418.818 316.075 392.072 306.895Z" fill="url(#paint2_linear_265_36)"/>
<path d="M823.901 283.528C822.442 278.104 819.524 273.514 815.148 269.341C811.744 264.751 807.367 261.413 801.531 258.91C799.586 258.075 797.641 257.241 795.696 256.406C791.805 253.903 787.429 252.234 782.566 250.982C773.813 248.895 764.087 248.895 754.847 250.982C743.662 253.485 734.909 258.91 728.101 266.838C725.669 269.759 724.697 271.01 723.238 272.679C715.457 282.694 714.485 295.212 717.403 306.895C719.834 316.075 728.101 324.003 737.341 329.01C741.231 331.096 744.635 331.931 749.498 333.6C750.47 334.017 751.443 334.017 752.416 334.434C756.306 335.269 761.655 336.103 766.032 336.103C768.463 336.103 770.895 336.103 773.326 335.686C778.676 336.103 784.025 335.686 789.861 334.434C793.751 333.183 797.641 331.514 801.531 330.262C808.826 326.506 814.661 321.499 818.551 315.658C821.955 311.068 823.901 305.643 824.387 300.219C825.846 294.377 825.846 288.953 823.901 283.528Z" fill="url(#paint3_linear_265_36)"/>
<path d="M905.598 233.874C904.626 230.953 903.167 228.032 900.735 225.946C898.79 223.442 896.359 221.356 892.955 219.687C888.578 217.601 883.715 216.349 878.852 216.349C877.393 216.349 876.421 216.766 874.962 216.766C873.503 216.766 872.53 217.183 871.071 217.183C871.071 217.183 871.072 217.183 870.585 217.183C868.154 218.018 866.208 218.852 863.777 219.687H863.291C860.859 220.939 858.914 222.191 856.969 223.86C852.592 227.615 851.62 230.118 849.188 235.126C848.216 238.464 847.729 241.802 848.702 244.723C848.702 248.061 850.161 250.982 852.106 253.902C854.051 256.823 856.483 258.91 859.4 260.996C862.318 263.082 865.236 264.751 869.126 265.586C871.558 266.003 873.989 266.003 876.907 266.42C882.256 266.42 887.119 265.169 891.495 263.082C892.468 262.248 893.441 261.83 894.9 260.996C894.9 260.996 895.386 260.996 895.386 260.579C895.872 260.162 896.845 259.744 897.331 259.327C899.277 257.658 900.736 255.989 901.708 254.32C903.653 252.234 904.626 249.73 905.112 247.226C907.057 242.219 907.057 238.046 905.598 233.874Z" fill="url(#paint4_linear_265_36)"/>
<path d="M906.572 311.902C905.113 307.312 902.681 303.557 898.79 300.218C896.845 298.967 894.414 297.298 892.469 296.046C887.606 293.542 882.256 292.29 876.907 292.29C872.531 292.29 868.641 292.708 865.237 294.377C861.346 295.628 857.942 297.297 855.511 299.801C852.593 302.305 850.161 305.225 849.189 308.146C847.244 311.484 846.271 314.823 846.757 318.161L847.73 325.254C849.189 329.844 851.621 333.6 855.511 336.938C857.456 338.189 859.887 339.859 861.832 341.11C866.695 343.614 872.045 344.866 877.394 344.866C881.771 344.866 885.661 344.449 889.065 342.779C892.955 341.528 896.359 339.858 898.79 337.355C901.708 334.851 904.14 331.93 905.112 329.01C907.058 325.671 908.03 322.333 907.544 318.995C907.544 316.492 907.058 313.988 906.572 311.902Z" fill="url(#paint5_linear_265_36)"/>
<path d="M1051.49 76.5651C982.92 64.4644 961.037 164.191 997.995 198.406C1017.45 216.349 1049.54 205.5 1057.81 185.054C1064.62 168.363 1061.7 150.421 1068.02 133.313C1071.43 124.133 1076.29 116.622 1075.8 106.608C1075.32 94.0902 1066.56 79.0687 1051.49 76.5651Z" fill="url(#paint6_linear_265_36)"/>
<path d="M671.691 664.49C670.232 660.317 667.801 656.979 664.397 653.641C661.479 651.137 657.102 649.051 653.212 647.799C652.725 647.799 652.726 647.799 652.239 647.382C650.294 646.965 647.863 646.965 645.917 646.547H645.431C637.164 646.965 628.411 650.303 624.521 656.979C623.062 659.483 621.603 661.986 621.117 664.907C620.144 669.497 618.685 674.504 621.117 678.677C622.089 680.346 622.575 682.015 623.548 683.684C625.007 685.353 625.98 686.605 627.439 688.274C629.384 689.526 630.842 690.36 632.788 691.612C635.705 693.281 638.623 694.115 642.027 694.115C644.459 694.533 646.404 694.533 648.836 694.115C651.267 694.115 653.212 693.698 655.157 692.446C657.102 692.029 659.047 691.195 660.506 689.525C661.479 689.108 661.965 688.691 662.451 687.856C664.883 686.605 667.315 684.518 668.773 682.432C669.746 680.763 670.719 679.094 670.719 677.008C670.719 676.59 671.205 676.173 671.205 675.756C671.205 675.339 671.205 675.339 671.691 674.921C672.177 673.669 672.663 671.166 672.663 669.497C672.177 668.662 672.177 666.159 671.691 664.49Z" fill="url(#paint7_linear_265_36)"/>
<path d="M773.813 696.202C772.84 692.864 770.895 689.943 767.978 687.44C766.519 686.188 764.574 684.936 763.115 684.102C760.197 682.015 757.279 680.346 753.389 679.512C752.416 679.094 750.957 679.094 749.498 679.094C748.039 678.677 747.067 678.677 745.608 678.677C743.176 679.095 741.232 679.094 738.8 679.512H738.313C733.937 680.346 729.56 682.85 726.156 685.771C724.697 687.44 723.239 688.692 722.266 690.361C721.78 691.195 721.293 692.447 720.807 693.281C720.321 694.116 719.835 694.95 719.348 696.202C718.862 698.288 718.862 699.958 718.375 702.044C718.375 703.296 718.375 704.13 718.862 705.382C718.862 706.634 718.862 707.468 719.348 708.72C720.321 710.389 721.293 712.476 721.78 714.145C722.266 714.979 723.238 715.814 723.724 716.648C726.156 719.569 726.642 720.404 731.019 722.49C732.964 723.742 735.396 724.576 737.827 724.993H738.313C740.745 725.411 743.176 725.411 745.121 725.828C746.58 725.828 747.553 725.828 749.012 725.411C750.471 725.411 751.443 724.993 752.902 724.993C754.847 724.159 757.279 723.324 759.224 722.907C760.197 722.49 761.169 722.072 761.656 721.238C763.114 720.403 765.546 718.734 766.519 717.9C767.491 717.065 767.977 716.231 768.95 715.396C771.381 712.893 772.84 711.224 773.813 707.468C774.785 703.296 774.785 699.54 773.813 696.202Z" fill="url(#paint8_linear_265_36)"/>
<path d="M699.41 737.094C696.492 734.591 693.088 732.504 689.198 731.252C685.307 729.583 681.417 728.749 677.04 728.749C669.26 727.914 661.479 729.166 654.671 732.504C646.89 736.259 641.541 742.519 638.623 750.029C637.651 753.367 637.651 755.036 637.651 757.54C637.651 759.626 638.137 762.547 639.11 765.051C639.596 766.72 640.569 768.389 641.541 770.058C642.514 772.561 643.973 774.648 646.404 776.734C646.891 777.986 647.863 778.82 648.836 779.655C649.808 780.489 651.267 781.324 652.24 781.741C654.185 783.41 656.616 784.662 659.534 785.497C663.911 787.166 666.828 788 672.664 788C675.095 788 679.472 787.583 681.903 787.166C682.39 787.166 682.39 787.166 682.876 787.166H683.362C685.308 786.749 689.684 785.079 691.629 784.245C691.629 784.245 692.115 784.245 692.115 783.827C694.061 782.993 697.465 780.489 698.924 779.238L699.41 778.821C700.382 777.986 703.787 773.813 704.759 772.979L705.246 772.562C706.218 771.31 708.163 767.137 708.649 765.885C709.136 764.633 709.136 762.547 709.136 761.713C709.136 760.461 709.622 758.792 709.622 757.54C708.65 749.612 705.732 742.101 699.41 737.094Z" fill="url(#paint9_linear_265_36)"/>
<defs>
<linearGradient id="paint0_linear_265_36" x1="-543.409" y1="156.921" x2="686.897" y2="156.921" gradientUnits="userSpaceOnUse">
<stop stop-color="#FF8A00" stop-opacity="0.8"/>
<stop offset="0.9959" stop-color="#FFDD95"/>
</linearGradient>
<linearGradient id="paint1_linear_265_36" x1="495.057" y1="441.386" x2="176.605" y2="-364.498" gradientUnits="userSpaceOnUse">
<stop stop-color="#FF8A00" stop-opacity="0.8"/>
<stop offset="1" stop-color="#FFF95F"/>
</linearGradient>
<linearGradient id="paint2_linear_265_36" x1="191.891" y1="427.542" x2="416.05" y2="427.542" gradientUnits="userSpaceOnUse">
<stop stop-color="#FF8A00"/>
<stop offset="1" stop-color="#F0D85C"/>
</linearGradient>
<linearGradient id="paint3_linear_265_36" x1="716.445" y1="292.456" x2="825.532" y2="292.456" gradientUnits="userSpaceOnUse">
<stop stop-color="#FFF95F"/>
<stop offset="0.9958" stop-color="#FF8A00" stop-opacity="0.8"/>
<stop offset="0.9959" stop-color="#FFF95F"/>
<stop offset="0.996" stop-color="#FF8A00" stop-opacity="0.8"/>
</linearGradient>
<linearGradient id="paint4_linear_265_36" x1="848.444" y1="241.185" x2="906.546" y2="241.185" gradientUnits="userSpaceOnUse">
<stop stop-color="#FFF95F"/>
<stop offset="0.9959" stop-color="#FF8A00" stop-opacity="0.8"/>
</linearGradient>
<linearGradient id="paint5_linear_265_36" x1="845.922" y1="318.841" x2="907.775" y2="318.841" gradientUnits="userSpaceOnUse">
<stop stop-color="#FFF95F"/>
<stop offset="0.9959" stop-color="#FF8A00" stop-opacity="0.8"/>
</linearGradient>
<linearGradient id="paint6_linear_265_36" x1="980.112" y1="141.421" x2="1076.02" y2="141.421" gradientUnits="userSpaceOnUse">
<stop stop-color="#FFF95F"/>
<stop offset="0.9959" stop-color="#FF8A00" stop-opacity="0.8"/>
</linearGradient>
<linearGradient id="paint7_linear_265_36" x1="619.199" y1="670.984" x2="672.369" y2="670.984" gradientUnits="userSpaceOnUse">
<stop stop-color="#FF8A00"/>
<stop offset="1" stop-color="#F0D85C"/>
</linearGradient>
<linearGradient id="paint8_linear_265_36" x1="718.039" y1="701.776" x2="774.491" y2="701.776" gradientUnits="userSpaceOnUse">
<stop stop-color="#FF8A00"/>
<stop offset="1" stop-color="#F0D85C"/>
</linearGradient>
<linearGradient id="paint9_linear_265_36" x1="637.372" y1="758.524" x2="708.953" y2="758.524" gradientUnits="userSpaceOnUse">
<stop stop-color="#FF8A00" stop-opacity="0.8"/>
<stop offset="1" stop-color="#F0D85C"/>
</linearGradient>
</defs>
</svg>
