<svg width="1200" height="980" viewBox="0 0 1200 980" fill="none" xmlns="http://www.w3.org/2000/svg">
<path d="M888.592 562.782C874.219 518.091 853.737 474.678 831.459 435.733C759.233 309.322 669.76 174.293 537.167 90.658C432.961 24.8991 288.511 1.27696 170.291 54.5864C35.9017 114.919 -37.4016 283.785 19.3726 407.961C80.4587 517.772 279.168 525.753 309.352 649.928C320.85 697.173 306.477 750.801 321.21 799.003C333.068 837.31 359.658 873.7 391.279 901.153C457.037 957.655 551.9 978.404 641.373 964.678C729.409 950.951 811.695 906.261 860.924 839.544C922.01 756.866 918.417 656.313 888.592 562.782Z" fill="url(#paint0_linear_265_13)"/>
<path opacity="0.56" d="M1095.21 524.795C1090.54 501.811 1093.77 477.87 1114.25 450.098C1136.53 419.772 1167.43 394.873 1185.4 362.313C1215.22 308.365 1196.54 240.371 1154.86 195.362C1062.51 96.4039 878.89 105.661 753.483 136.306C625.921 167.59 503.749 230.156 404.933 308.046C334.145 363.59 266.591 423.284 205.505 487.127C168.494 525.753 51.3526 635.883 107.408 692.065C124.297 708.984 152.684 714.091 177.118 716.326C214.129 720.157 243.235 723.668 276.653 740.586C333.067 769.316 378.343 806.665 445.897 812.091C516.685 817.518 586.754 798.046 657.542 797.407C713.239 796.769 767.857 808.261 820.319 823.903C869.547 838.587 911.589 861.251 964.411 855.186C1025.14 848.163 1081.55 812.73 1115.33 768.039C1144.08 729.733 1156.65 679.616 1142.64 634.606C1128.62 593.427 1102.39 560.228 1095.21 524.795Z" fill="#FFF95F"/>
<path d="M354.987 172.697C437.633 150.033 523.513 188.339 606.518 172.697C714.317 152.267 692.398 17.8762 795.526 0C1018.67 5.42671 1061.79 284.104 1037.71 432.86C1031.61 469.57 1019.03 499.257 984.533 522.88C877.812 595.023 736.596 551.928 617.657 588.639C564.476 605.238 533.574 639.713 521.357 687.596C507.702 740.906 507.343 804.43 453.803 840.502C368.282 897.961 274.856 817.837 256.53 741.544C219.16 654.078 284.917 581.616 326.959 508.195C396.31 395.831 158.433 226.645 354.987 172.697Z" fill="url(#paint1_linear_265_13)"/>
<path d="M675.51 46.606C673.354 37.6678 662.215 30.3258 652.154 30.645C632.391 31.2835 620.533 47.5636 604.722 56.1825C588.193 65.1206 572.742 73.4203 553.338 76.9317C536.809 80.1239 519.92 80.1238 503.391 76.2932C481.472 71.1857 462.787 59.6939 439.79 58.7362C418.589 58.0978 399.904 78.847 407.091 97.0424C427.573 149.713 516.686 160.248 569.867 147.479C595.739 141.094 624.126 128.645 642.811 111.407C660.418 95.7655 680.9 69.9089 675.51 46.606Z" fill="url(#paint2_linear_265_13)"/>
<path d="M691.679 611.942C648.2 596.619 593.582 627.583 570.585 658.547C543.995 693.981 529.621 756.228 564.117 791.023C583.521 810.815 614.423 797.088 623.766 776.977C629.874 763.889 626.641 749.844 628.078 736.118C629.515 723.03 633.108 708.984 640.654 697.492C646.763 687.915 654.668 678.339 663.651 670.678C673.712 662.697 686.648 658.547 697.788 651.844C716.473 640.99 711.442 618.964 691.679 611.942Z" fill="url(#paint3_linear_265_13)"/>
<path d="M301.446 388.808C301.446 387.531 301.087 386.573 301.087 385.296C298.572 372.847 285.276 363.59 271.622 363.27C253.655 362.632 239.641 376.358 238.923 392C238.204 408.919 254.733 422.964 273.418 422.964C278.808 422.964 285.277 421.687 290.307 419.134C298.931 414.665 303.243 406.684 303.602 398.065C303.243 394.554 302.884 391.681 301.446 388.808Z" fill="url(#paint4_linear_265_13)"/>
<path d="M259.045 462.547C252.218 459.993 245.032 459.036 238.564 459.355C228.143 457.44 216.644 459.036 206.583 464.143C194.366 470.208 185.742 480.423 181.789 491.596C177.837 501.172 177.118 511.707 180.712 521.603C188.976 546.502 219.16 562.143 247.547 555.44C266.951 550.651 282.761 535.01 287.432 517.772C292.822 496.384 283.12 471.804 259.045 462.547Z" fill="url(#paint5_linear_265_13)"/>
<path d="M210.176 390.084C206.224 384.977 201.193 380.827 194.366 379.231C188.616 377.954 185.023 378.273 179.633 379.231C173.884 380.189 167.416 383.7 163.463 387.53C159.151 391.68 157.714 394.553 155.199 399.661C154.121 402.534 153.762 405.407 153.762 408.28C153.762 411.472 154.48 414.664 155.918 417.537C156.996 420.41 158.792 422.964 161.667 425.198C164.182 427.433 167.057 429.348 170.291 430.306C173.525 431.902 177.118 432.54 180.711 432.221C187.539 431.902 194.725 429.987 199.756 425.517C200.474 425.198 201.193 424.56 201.912 424.241C202.99 423.283 204.427 422.644 205.146 421.687C206.583 420.41 208.38 418.175 209.458 416.579C210.177 415.302 210.895 414.026 211.255 413.068C211.973 411.791 212.332 410.833 212.692 409.237C214.488 402.853 214.488 395.83 210.176 390.084Z" fill="url(#paint6_linear_265_13)"/>
<path d="M1010.76 594.065C1009.69 589.915 1007.53 586.404 1004.3 583.212C1001.78 579.7 998.547 577.147 994.235 575.231C992.797 574.593 991.36 573.955 989.923 573.316C987.048 571.401 983.815 570.124 980.221 569.166C973.753 567.57 966.566 567.57 959.739 569.166C951.475 571.082 945.007 575.231 939.976 581.297C938.179 583.531 937.461 584.489 936.383 585.766C930.633 593.427 929.915 603.003 932.071 611.941C933.868 618.964 939.976 625.029 946.803 628.86C949.678 630.456 952.193 631.095 955.787 632.371C956.505 632.691 957.224 632.691 957.943 633.01C960.817 633.648 964.77 634.287 968.004 634.287C969.801 634.287 971.597 634.287 973.394 633.968C977.347 634.287 981.299 633.968 985.611 633.01C988.486 632.052 991.36 630.775 994.235 629.818C999.625 626.945 1003.94 623.114 1006.81 618.645C1009.33 615.134 1010.76 610.984 1011.12 606.834C1012.2 602.365 1012.2 598.215 1010.76 594.065Z" fill="url(#paint7_linear_265_13)"/>
<path d="M1071.13 556.078C1070.41 553.844 1069.33 551.609 1067.54 550.013C1066.1 548.098 1064.3 546.502 1061.79 545.225C1058.56 543.629 1054.96 542.671 1051.37 542.671C1050.29 542.671 1049.57 542.99 1048.49 542.99C1047.42 542.99 1046.7 543.31 1045.62 543.31C1045.62 543.31 1045.62 543.31 1045.26 543.31C1043.46 543.948 1042.03 544.587 1040.23 545.225H1039.87C1038.07 546.183 1036.64 547.14 1035.2 548.417C1031.96 551.29 1031.25 553.205 1029.45 557.036C1028.73 559.59 1028.37 562.144 1029.09 564.378C1029.09 566.932 1030.17 569.166 1031.61 571.401C1033.04 573.635 1034.84 575.231 1037 576.828C1039.15 578.424 1041.31 579.701 1044.18 580.339C1045.98 580.658 1047.78 580.658 1049.93 580.977C1053.88 580.977 1057.48 580.02 1060.71 578.424C1061.43 577.785 1062.15 577.466 1063.23 576.828C1063.23 576.828 1063.59 576.828 1063.59 576.508C1063.95 576.189 1064.66 575.87 1065.02 575.551C1066.46 574.274 1067.54 572.997 1068.26 571.72C1069.69 570.124 1070.41 568.209 1070.77 566.293C1072.21 562.463 1072.21 559.271 1071.13 556.078Z" fill="url(#paint8_linear_265_13)"/>
<path d="M1071.85 615.772C1070.77 612.26 1068.98 609.388 1066.1 606.834C1064.66 605.876 1062.87 604.599 1061.43 603.642C1057.84 601.726 1053.88 600.769 1049.93 600.769C1046.7 600.769 1043.82 601.088 1041.31 602.365C1038.43 603.322 1035.92 604.599 1034.12 606.514C1031.97 608.43 1030.17 610.664 1029.45 612.899C1028.01 615.453 1027.29 618.006 1027.65 620.56L1028.37 625.987C1029.45 629.498 1031.25 632.371 1034.12 634.925C1035.56 635.883 1037.36 637.159 1038.79 638.117C1042.39 640.032 1046.34 640.99 1050.29 640.99C1053.53 640.99 1056.4 640.671 1058.91 639.394C1061.79 638.436 1064.3 637.159 1066.1 635.244C1068.26 633.329 1070.05 631.094 1070.77 628.86C1072.21 626.306 1072.93 623.752 1072.57 621.199C1072.57 619.283 1072.21 617.368 1071.85 615.772Z" fill="url(#paint9_linear_265_13)"/>
<path d="M1178.93 435.733C1128.27 426.476 1112.1 502.769 1139.41 528.945C1153.78 542.671 1177.49 534.371 1183.6 518.73C1188.63 505.961 1186.48 492.235 1191.15 479.147C1193.66 472.124 1197.26 466.378 1196.9 458.717C1196.54 449.14 1190.07 437.648 1178.93 435.733Z" fill="url(#paint10_linear_265_13)"/>
<path d="M1101.32 104.065C1081.55 82.3584 1032.32 77.2509 1003.94 84.5929C987.049 89.0619 990.642 110.769 1007.89 111.407C1021.54 112.046 1034.48 112.046 1047.78 116.195C1060.35 120.345 1070.41 128.007 1082.99 131.837C1102.39 138.222 1111.74 115.557 1101.32 104.065Z" fill="url(#paint11_linear_265_13)"/>
<path d="M1025.86 49.4791C1020.47 41.8178 1010.41 44.3715 1003.58 48.5213C994.954 53.9481 986.69 59.694 978.425 65.44C969.082 71.5051 976.988 83.9546 987.767 79.4856C996.751 75.6549 1005.73 71.8243 1015.08 67.9937C1022.26 64.8015 1031.61 57.7787 1025.86 49.4791Z" fill="url(#paint12_linear_265_13)"/>
<path d="M241.079 745.375C240.72 745.375 240.72 745.055 241.079 745.375C240.72 744.417 240.001 743.459 239.641 742.821V742.502C239.282 741.863 238.563 740.906 237.845 740.267C236.048 738.033 233.892 736.117 231.377 734.84C229.58 734.202 227.784 733.564 225.987 732.606C222.753 731.648 219.879 731.648 216.645 732.287C215.207 732.287 214.129 732.606 213.051 732.925C212.692 732.925 211.973 732.925 211.614 733.244C211.255 733.244 211.254 733.245 210.895 733.564C208.02 734.202 205.505 735.479 203.349 737.075C200.834 738.352 199.037 740.267 197.6 742.502C196.522 744.098 195.804 745.694 195.085 747.609C194.366 749.525 194.366 751.759 194.007 753.994C193.647 756.547 194.366 759.42 195.085 761.974C195.804 763.57 196.522 765.166 197.241 766.762C198.678 768.997 200.475 770.912 202.99 772.189C204.427 773.466 205.865 774.104 208.021 774.743C209.817 775.381 211.255 776.02 213.411 776.339C217.723 777.616 222.394 777.935 227.065 776.658C230.299 776.02 232.814 774.743 235.33 772.828C237.845 771.231 240.001 769.316 241.438 766.762C243.594 763.57 244.672 759.74 244.672 755.909C244.313 752.078 243.235 748.567 241.079 745.375Z" fill="url(#paint13_linear_265_13)"/>
<path d="M238.923 821.987C238.923 820.71 238.923 819.752 238.564 818.476C237.845 816.241 236.767 814.645 234.971 813.049C233.174 811.453 231.018 810.176 228.503 809.857C227.065 809.537 225.987 809.218 224.55 809.538C223.831 809.538 221.316 809.857 220.597 810.176C218.801 810.495 217.004 811.453 215.567 812.41C214.489 813.049 213.77 813.687 213.052 814.645C211.614 815.922 210.895 817.518 210.536 819.114C210.536 820.391 210.177 821.349 210.177 822.625C210.177 823.902 210.536 824.86 210.536 826.137C210.895 827.733 211.974 829.329 213.052 830.606C213.77 831.563 214.489 832.202 215.567 832.84C217.004 834.117 218.801 834.756 220.597 835.075C223.113 835.713 225.628 835.713 228.503 835.075C230.299 834.756 232.096 833.798 233.533 832.84C234.611 832.202 235.33 831.563 236.048 830.606C237.486 829.329 238.205 827.733 238.564 826.137C238.564 824.541 238.564 823.264 238.923 821.987Z" fill="url(#paint14_linear_265_13)"/>
<path d="M169.213 774.104C165.26 770.912 160.949 768.997 155.559 768.997C153.043 768.997 150.528 769.316 148.012 770.593C145.497 771.231 143.701 772.508 141.904 774.104C140.107 775.7 138.67 777.616 137.951 779.531C136.873 781.446 136.155 783.681 136.155 786.235C136.514 790.704 137.951 795.173 141.904 798.365C145.857 801.557 150.169 803.472 155.559 803.472C158.074 803.472 160.589 803.153 163.105 801.876C165.62 801.238 167.416 799.961 169.213 798.365C171.01 796.769 172.447 794.854 173.166 792.938C174.244 791.023 174.962 788.788 174.962 786.235C174.603 781.766 172.806 776.977 169.213 774.104Z" fill="url(#paint15_linear_265_13)"/>
<path d="M898.294 885.511C897.216 882.319 895.419 879.765 892.904 877.212C890.748 875.296 887.514 873.7 884.639 872.742C884.28 872.742 884.28 872.742 883.921 872.423C882.483 872.104 880.687 872.104 879.249 871.785H878.89C872.781 872.104 866.314 874.658 863.439 879.765C862.361 881.681 861.283 883.596 860.924 885.83C860.205 889.342 859.127 893.172 860.924 896.365C861.642 897.642 862.002 898.918 862.72 900.195C863.798 901.472 864.517 902.43 865.595 903.707C867.032 904.664 868.11 905.303 869.548 906.26C871.704 907.537 873.86 908.176 876.375 908.176C878.172 908.495 879.609 908.495 881.406 908.176C883.202 908.176 884.639 907.856 886.077 906.899C887.514 906.58 888.951 905.941 890.029 904.664C890.748 904.345 891.107 904.026 891.467 903.387C893.263 902.43 895.06 900.834 896.138 899.237C896.857 897.961 897.575 896.684 897.575 895.088C897.575 894.768 897.935 894.449 897.935 894.13C897.935 893.811 897.935 893.811 898.294 893.492C898.653 892.534 899.012 890.619 899.012 889.342C898.653 888.703 898.653 886.788 898.294 885.511Z" fill="url(#paint16_linear_265_13)"/>
<path d="M973.753 909.772C973.035 907.218 971.598 904.984 969.442 903.068C968.364 902.111 966.926 901.153 965.848 900.515C963.692 898.919 961.536 897.642 958.662 897.003C957.943 896.684 956.865 896.684 955.787 896.684C954.709 896.365 953.99 896.365 952.912 896.365C951.115 896.684 949.678 896.684 947.882 897.003H947.522C944.288 897.642 941.054 899.557 938.539 901.792C937.461 903.068 936.383 904.026 935.664 905.303C935.305 905.942 934.946 906.899 934.586 907.538C934.227 908.176 933.868 908.814 933.509 909.772C933.149 911.368 933.149 912.645 932.79 914.241C932.79 915.199 932.79 915.837 933.149 916.795C933.149 917.753 933.149 918.391 933.509 919.349C934.227 920.625 934.946 922.222 935.305 923.499C935.665 924.137 936.383 924.775 936.742 925.414C938.539 927.648 938.898 928.287 942.132 929.883C943.569 930.841 945.366 931.479 947.163 931.798H947.522C949.319 932.117 951.116 932.117 952.553 932.437C953.631 932.437 954.35 932.437 955.428 932.117C956.506 932.117 957.224 931.798 958.302 931.798C959.739 931.16 961.536 930.521 962.973 930.202C963.692 929.883 964.411 929.564 964.77 928.925C965.848 928.287 967.645 927.01 968.363 926.371C969.082 925.733 969.441 925.095 970.16 924.456C971.957 922.541 973.035 921.264 973.753 918.391C974.472 915.199 974.472 912.326 973.753 909.772Z" fill="url(#paint17_linear_265_13)"/>
<path d="M918.776 941.056C916.62 939.14 914.104 937.544 911.23 936.587C908.355 935.31 905.48 934.671 902.247 934.671C896.497 934.033 890.748 934.99 885.717 937.544C879.968 940.417 876.015 945.205 873.859 950.951C873.141 953.505 873.141 954.782 873.141 956.697C873.141 958.293 873.5 960.528 874.219 962.443C874.578 963.72 875.297 964.997 876.016 966.274C876.734 968.189 877.812 969.785 879.609 971.381C879.968 972.339 880.687 972.977 881.406 973.616C882.124 974.254 883.202 974.893 883.921 975.212C885.358 976.489 887.155 977.446 889.311 978.085C892.545 979.362 894.701 980 899.012 980C900.809 980 904.043 979.681 905.84 979.362C906.199 979.362 906.199 979.362 906.559 979.362H906.918C908.355 979.043 911.589 977.766 913.026 977.127C913.026 977.127 913.386 977.127 913.386 976.808C914.823 976.169 917.338 974.254 918.416 973.297L918.776 972.977C919.494 972.339 922.01 969.147 922.729 968.508L923.088 968.189C923.807 967.232 925.244 964.039 925.603 963.082C925.962 962.124 925.962 960.528 925.962 959.889C925.962 958.932 926.322 957.655 926.322 956.697C925.603 950.632 923.447 944.886 918.776 941.056Z" fill="url(#paint18_linear_265_13)"/>
<defs>
<linearGradient id="paint0_linear_265_13" x1="0.436582" y1="497.207" x2="909.53" y2="497.207" gradientUnits="userSpaceOnUse">
<stop stop-color="#FF8A00" stop-opacity="0.8"/>
<stop offset="0.9959" stop-color="#FFDD95"/>
</linearGradient>
<linearGradient id="paint1_linear_265_13" x1="767.776" y1="714.831" x2="517.969" y2="104.239" gradientUnits="userSpaceOnUse">
<stop stop-color="#FF8A00" stop-opacity="0.8"/>
<stop offset="1" stop-color="#FFF95F"/>
</linearGradient>
<linearGradient id="paint2_linear_265_13" x1="405.639" y1="91.6738" x2="676.49" y2="91.6738" gradientUnits="userSpaceOnUse">
<stop stop-color="#FF8A00"/>
<stop offset="1" stop-color="#F0D85C"/>
</linearGradient>
<linearGradient id="paint3_linear_265_13" x1="543.762" y1="704.24" x2="709.397" y2="704.24" gradientUnits="userSpaceOnUse">
<stop stop-color="#FF8A00"/>
<stop offset="1" stop-color="#F0D85C"/>
</linearGradient>
<linearGradient id="paint4_linear_265_13" x1="238.706" y1="392.799" x2="303.198" y2="392.799" gradientUnits="userSpaceOnUse">
<stop stop-color="#FF8A00"/>
<stop offset="1" stop-color="#F0D85C"/>
</linearGradient>
<linearGradient id="paint5_linear_265_13" x1="178.319" y1="507.977" x2="288.654" y2="507.977" gradientUnits="userSpaceOnUse">
<stop stop-color="#FF8A00"/>
<stop offset="1" stop-color="#F0D85C"/>
</linearGradient>
<linearGradient id="paint6_linear_265_13" x1="153.846" y1="405.346" x2="213.998" y2="405.346" gradientUnits="userSpaceOnUse">
<stop stop-color="#FF8A00"/>
<stop offset="1" stop-color="#F0D85C"/>
</linearGradient>
<linearGradient id="paint7_linear_265_13" x1="931.363" y1="600.896" x2="1011.97" y2="600.896" gradientUnits="userSpaceOnUse">
<stop stop-color="#FFF95F"/>
<stop offset="0.9958" stop-color="#FF8A00" stop-opacity="0.8"/>
<stop offset="0.9959" stop-color="#FFF95F"/>
<stop offset="0.996" stop-color="#FF8A00" stop-opacity="0.8"/>
</linearGradient>
<linearGradient id="paint8_linear_265_13" x1="1028.9" y1="561.672" x2="1071.83" y2="561.672" gradientUnits="userSpaceOnUse">
<stop stop-color="#FFF95F"/>
<stop offset="0.9959" stop-color="#FF8A00" stop-opacity="0.8"/>
</linearGradient>
<linearGradient id="paint9_linear_265_13" x1="1027.04" y1="621.081" x2="1072.74" y2="621.081" gradientUnits="userSpaceOnUse">
<stop stop-color="#FFF95F"/>
<stop offset="0.9959" stop-color="#FF8A00" stop-opacity="0.8"/>
</linearGradient>
<linearGradient id="paint10_linear_265_13" x1="1126.19" y1="485.35" x2="1197.06" y2="485.35" gradientUnits="userSpaceOnUse">
<stop stop-color="#FFF95F"/>
<stop offset="0.9959" stop-color="#FF8A00" stop-opacity="0.8"/>
</linearGradient>
<linearGradient id="paint11_linear_265_13" x1="992.887" y1="107.193" x2="1105.65" y2="107.193" gradientUnits="userSpaceOnUse">
<stop stop-color="#FFF95F"/>
<stop offset="0.9959" stop-color="#FF8A00" stop-opacity="0.8"/>
</linearGradient>
<linearGradient id="paint12_linear_265_13" x1="974.125" y1="62.4766" x2="1027.59" y2="62.4766" gradientUnits="userSpaceOnUse">
<stop stop-color="#FFF95F"/>
<stop offset="0.9959" stop-color="#FF8A00" stop-opacity="0.8"/>
</linearGradient>
<linearGradient id="paint13_linear_265_13" x1="193.744" y1="754.799" x2="244.194" y2="754.799" gradientUnits="userSpaceOnUse">
<stop stop-color="#FFF95F"/>
<stop offset="0.9959" stop-color="#FF8A00" stop-opacity="0.8"/>
</linearGradient>
<linearGradient id="paint14_linear_265_13" x1="209.684" y1="822.036" x2="238.88" y2="822.036" gradientUnits="userSpaceOnUse">
<stop stop-color="#FFF95F"/>
<stop offset="0.9959" stop-color="#FF8A00" stop-opacity="0.8"/>
</linearGradient>
<linearGradient id="paint15_linear_265_13" x1="135.997" y1="786.142" x2="174.734" y2="786.142" gradientUnits="userSpaceOnUse">
<stop stop-color="#FFF95F"/>
<stop offset="0.9959" stop-color="#FF8A00" stop-opacity="0.8"/>
</linearGradient>
<linearGradient id="paint16_linear_265_13" x1="859.506" y1="890.479" x2="898.795" y2="890.479" gradientUnits="userSpaceOnUse">
<stop stop-color="#FF8A00"/>
<stop offset="1" stop-color="#F0D85C"/>
</linearGradient>
<linearGradient id="paint17_linear_265_13" x1="932.541" y1="914.036" x2="974.254" y2="914.036" gradientUnits="userSpaceOnUse">
<stop stop-color="#FF8A00"/>
<stop offset="1" stop-color="#F0D85C"/>
</linearGradient>
<linearGradient id="paint18_linear_265_13" x1="872.935" y1="957.45" x2="925.827" y2="957.45" gradientUnits="userSpaceOnUse">
<stop stop-color="#FF8A00" stop-opacity="0.8"/>
<stop offset="1" stop-color="#F0D85C"/>
</linearGradient>
</defs>
</svg>
